<svg xmlns="http://www.w3.org/2000/svg" xmlns:xlink="http://www.w3.org/1999/xlink" width="500" zoomAndPan="magnify" viewBox="0 0 375 374.999991" height="500" preserveAspectRatio="xMidYMid meet" version="1.0"><defs><g/><clipPath id="17ceae7243"><path d="M 137.980469 102.4375 L 236.980469 102.4375 L 236.980469 201.4375 L 137.980469 201.4375 Z M 137.980469 102.4375 " clip-rule="nonzero"/></clipPath></defs><g clip-path="url(#17ceae7243)"><path fill="#000000" d="M 208.261719 109.027344 L 187.503906 109.027344 L 169.527344 127.003906 L 166.730469 109.027344 L 187.5 109.027344 L 205.476562 127.003906 Z M 185.945312 123.402344 L 176.867188 170.28125 L 187.503906 194.886719 L 198.140625 170.28125 L 189.0625 123.402344 L 193.816406 118.648438 L 187.503906 112.339844 L 181.195312 118.648438 Z M 221.121094 185.570312 L 230.4375 185.570312 L 230.4375 194.886719 L 221.121094 194.886719 Z M 221.121094 170.261719 L 230.4375 170.261719 L 230.4375 179.582031 L 221.121094 179.582031 Z M 221.121094 154.953125 L 230.4375 154.953125 L 230.4375 164.269531 L 221.121094 164.269531 Z M 221.121094 139.644531 L 230.4375 139.644531 L 230.4375 148.964844 L 221.121094 148.964844 Z M 221.121094 124.335938 L 230.4375 124.335938 L 230.4375 133.652344 L 221.121094 133.652344 Z M 221.121094 109.027344 L 230.4375 109.027344 L 230.4375 118.347656 L 221.121094 118.347656 Z M 144.554688 185.570312 L 153.871094 185.570312 L 153.871094 194.886719 L 144.554688 194.886719 Z M 144.554688 170.261719 L 153.871094 170.261719 L 153.871094 179.582031 L 144.554688 179.582031 Z M 144.554688 154.953125 L 153.871094 154.953125 L 153.871094 164.269531 L 144.554688 164.269531 Z M 144.554688 139.644531 L 153.871094 139.644531 L 153.871094 148.964844 L 144.554688 148.964844 Z M 144.554688 124.335938 L 153.871094 124.335938 L 153.871094 133.652344 L 144.554688 133.652344 Z M 144.554688 109.027344 L 153.871094 109.027344 L 153.871094 118.347656 L 144.554688 118.347656 Z M 147.878906 102.4375 L 227.117188 102.4375 C 232.566406 102.4375 237.015625 106.894531 237.015625 112.34375 L 237.015625 191.574219 C 237.015625 197.023438 232.566406 201.476562 227.117188 201.476562 L 147.878906 201.476562 C 142.429688 201.476562 137.980469 197.023438 137.980469 191.574219 L 137.980469 112.34375 C 137.980469 106.894531 142.429688 102.4375 147.878906 102.4375 Z M 147.878906 102.4375 " fill-opacity="1" fill-rule="evenodd"/></g><g fill="#000000" fill-opacity="1"><g transform="translate(120.904243, 245.898697)"><g><path d="M 27.078125 -19.59375 L 26.921875 -19.59375 C 26.828125 -19.039062 26.707031 -18.425781 26.5625 -17.75 C 26.425781 -17.070312 26.296875 -16.445312 26.171875 -15.875 C 26.054688 -15.300781 25.945312 -14.863281 25.84375 -14.5625 L 21.90625 0 L 14.078125 0 L 9.890625 -14.9375 C 9.785156 -15.269531 9.640625 -15.894531 9.453125 -16.8125 C 9.265625 -17.738281 9.144531 -18.664062 9.09375 -19.59375 L 8.953125 -19.59375 L 8.953125 -4.828125 L 11.09375 -4.828125 L 11.09375 0 L 0.9375 0 L 0.9375 -4.828125 L 2.953125 -4.828125 L 2.953125 -21.34375 L 0.96875 -21.34375 L 0.96875 -26.1875 L 15.171875 -26.1875 L 18.953125 -12.171875 L 22.546875 -26.1875 L 36.8125 -26.1875 L 36.8125 -21.34375 L 34.75 -21.34375 L 34.75 -4.875 L 36.8125 -4.875 L 36.8125 0 L 24.984375 0 L 24.984375 -4.875 L 27.078125 -4.875 Z M 27.078125 -19.59375 "/></g></g></g><g fill="#000000" fill-opacity="1"><g transform="translate(158.654819, 245.898697)"><g><path d="M 13.96875 0.671875 C 11.375 0.671875 9.0625 0.164062 7.03125 -0.84375 C 5.007812 -1.851562 3.425781 -3.390625 2.28125 -5.453125 C 1.132812 -7.515625 0.5625 -10.101562 0.5625 -13.21875 C 0.5625 -15.914062 1.113281 -18.296875 2.21875 -20.359375 C 3.332031 -22.421875 4.878906 -24.023438 6.859375 -25.171875 C 8.847656 -26.316406 11.128906 -26.890625 13.703125 -26.890625 C 16.773438 -26.890625 19.300781 -26.316406 21.28125 -25.171875 C 23.269531 -24.023438 24.742188 -22.40625 25.703125 -20.3125 C 26.671875 -18.226562 27.15625 -15.773438 27.15625 -12.953125 C 27.15625 -10.140625 26.640625 -7.710938 25.609375 -5.671875 C 24.585938 -3.640625 23.097656 -2.070312 21.140625 -0.96875 C 19.179688 0.125 16.789062 0.671875 13.96875 0.671875 Z M 13.96875 -5.203125 C 15.144531 -5.203125 16.078125 -5.910156 16.765625 -7.328125 C 17.453125 -8.753906 17.796875 -10.628906 17.796875 -12.953125 C 17.796875 -14.484375 17.648438 -15.859375 17.359375 -17.078125 C 17.066406 -18.296875 16.617188 -19.273438 16.015625 -20.015625 C 15.421875 -20.753906 14.640625 -21.125 13.671875 -21.125 C 12.921875 -21.144531 12.25 -20.816406 11.65625 -20.140625 C 11.070312 -19.472656 10.617188 -18.539062 10.296875 -17.34375 C 9.972656 -16.144531 9.8125 -14.769531 9.8125 -13.21875 C 9.8125 -10.769531 10.203125 -8.820312 10.984375 -7.375 C 11.773438 -5.925781 12.769531 -5.203125 13.96875 -5.203125 Z M 13.96875 -5.203125 "/></g></g></g><g fill="#000000" fill-opacity="1"><g transform="translate(186.368532, 245.898697)"><g><path d="M 15.734375 -8.390625 L 15.921875 -8.390625 C 15.972656 -8.910156 16.113281 -9.601562 16.34375 -10.46875 C 16.582031 -11.332031 16.890625 -12.222656 17.265625 -13.140625 L 20.671875 -21.3125 L 18.6875 -21.3125 L 18.6875 -26.1875 L 29.328125 -26.1875 L 29.328125 -21.3125 L 27.484375 -21.3125 L 18.5 0 L 11.609375 0 L 1.6875 -21.3125 L -0.375 -21.3125 L -0.375 -26.1875 L 13.40625 -26.1875 L 13.40625 -21.3125 L 11.390625 -21.3125 L 14.5625 -12.921875 C 14.863281 -11.992188 15.125 -11.132812 15.34375 -10.34375 C 15.570312 -9.5625 15.703125 -8.910156 15.734375 -8.390625 Z M 15.734375 -8.390625 "/></g></g></g><g fill="#000000" fill-opacity="1"><g transform="translate(215.318137, 245.898697)"><g><path d="M 0.9375 -26.1875 L 13.375 -26.1875 L 13.375 -21.234375 L 11.046875 -21.234375 L 11.046875 -4.984375 L 13.375 -4.984375 L 13.375 0 L 0.9375 0 L 0.9375 -4.984375 L 3.296875 -4.984375 L 3.296875 -21.234375 L 0.9375 -21.234375 Z M 0.9375 -26.1875 "/></g></g></g><g fill="#000000" fill-opacity="1"><g transform="translate(229.624413, 245.898697)"><g><path d="M 0.9375 -26.1875 L 23.515625 -26.1875 L 23.515625 -17.90625 L 17.046875 -17.90625 L 17.046875 -21.234375 L 11.046875 -21.234375 L 11.046875 -16.0625 L 18.171875 -16.0625 L 18.171875 -11.09375 L 11.046875 -11.09375 L 11.046875 -4.984375 L 17.046875 -4.984375 L 17.046875 -8.46875 L 23.515625 -8.46875 L 23.515625 0 L 0.9375 0 L 0.9375 -4.984375 L 3.296875 -4.984375 L 3.296875 -21.234375 L 0.9375 -21.234375 Z M 0.9375 -26.1875 "/></g></g></g></svg>